<svg width="41" height="40" viewBox="0 0 41 40" fill="none" xmlns="http://www.w3.org/2000/svg">
<rect x="0.5" width="40" height="40" rx="20" fill="#F4FCFF"/>
<path d="M32.2209 14.7176C31.9434 13.7665 31.4823 13.0808 30.8872 12.7354L30.8792 12.7311C30.6084 12.5781 30.32 12.4999 30.0291 12.5004H29.9971C28.6349 12.5299 27.2442 14.1992 26.5371 16.6543C26.0185 18.4497 25.959 20.3807 26.3781 21.8199C26.6551 22.7717 27.1172 23.4574 27.7148 23.8028L27.7213 23.8064C27.9922 23.9593 28.2805 24.0375 28.5714 24.0372C29.9466 24.0372 31.3518 22.3679 32.0719 19.8803C32.584 18.0871 32.6405 16.1575 32.2209 14.7176Z" fill="#387E96"/>
<path d="M26.7781 25.3069C25.9925 24.6263 25.2499 23.9824 24.7649 22.8258C23.4267 19.6243 22.6186 17.6919 20.4998 17.6919C18.381 17.6919 17.5709 19.6243 16.2297 22.8258C15.7436 23.9838 14.9995 24.6284 14.2114 25.312C13.3078 26.095 12.3742 26.9041 11.9711 28.4961C11.8144 29.0701 11.7355 29.682 11.7386 30.2988C11.7386 32.8909 13.1388 35 14.859 35C15.7466 35 16.6913 34.5566 17.6909 34.0871C18.652 33.6358 19.6457 33.1693 20.5048 33.1693C21.3639 33.1693 22.355 33.6358 23.3127 34.0871C24.3103 34.5537 25.2504 34.9971 26.1406 34.9971C27.8583 34.9971 29.256 32.888 29.256 30.2959C29.2574 29.6786 29.1768 29.0667 29.0185 28.4932C28.6154 26.8997 27.6813 26.09 26.7781 25.3069Z" fill="#387E96"/>
<path d="M15.1991 15.1574C15.7941 16.234 16.5492 16.8267 17.3253 16.8267C17.4313 16.8267 17.5371 16.8153 17.6419 16.7928C19.2606 16.4496 20.2693 13.6014 19.9382 10.3033C19.7997 8.91674 19.4296 7.62534 18.8996 6.66779C18.3055 5.59342 17.5494 5.00144 16.7738 5.00144C16.6678 5.00145 16.562 5.01277 16.4572 5.03533C14.8385 5.37855 13.8299 8.2267 14.1609 11.5248C14.2989 12.9092 14.669 14.1992 15.1991 15.1574Z" fill="#387E96"/>
<path d="M23.3582 16.7928C23.463 16.8153 23.5688 16.8267 23.6747 16.8267C24.4513 16.8267 25.2059 16.234 25.801 15.1574C26.3306 14.1992 26.6986 12.9092 26.8387 11.5233C27.1697 8.2267 26.1611 5.37855 24.5423 5.03389C24.4376 5.01133 24.3317 5 24.2258 5C23.4502 5.00144 22.6941 5.59342 22.1 6.66779C21.5699 7.62534 21.1999 8.91674 21.0619 10.3048C20.7308 13.6014 21.7395 16.4496 23.3582 16.7928Z" fill="#387E96"/>
<path d="M13.2783 23.8064L13.2853 23.8028C13.8819 23.4574 14.3434 22.7724 14.62 21.8214C15.039 20.3793 14.98 18.4505 14.4624 16.655C13.7459 14.1703 12.3412 12.5004 10.9675 12.5004C10.6766 12.4998 10.3882 12.578 10.1173 12.7311L10.1103 12.7347C9.51527 13.0772 9.0537 13.7651 8.77716 14.7161C8.35811 16.1582 8.41711 18.0871 8.93469 19.8825C9.65128 22.3672 11.056 24.0372 12.4297 24.0372C12.7201 24.0375 13.0079 23.9592 13.2783 23.8064Z" fill="#387E96"/>
</svg>
